<svg width="42" height="30" viewBox="0 0 42 30" fill="none" xmlns="http://www.w3.org/2000/svg">
<path d="M3 30H7.15057C10.1226 30 12.8396 28.3208 14.1687 25.6625C16.6883 20.6234 18 15.0669 18 9.43302V8C18 3.58172 14.4183 0 10 0H8C3.58172 0 0 3.58172 0 8V9.23974C0 13.944 4.03935 17.6328 8.72429 17.2069L11 17L3 30ZM27 30H31.1506C34.1226 30 36.8396 28.3208 38.1687 25.6625C40.6883 20.6234 42 15.0669 42 9.43302V8C42 3.58172 38.4183 0 34 0H32C27.5817 0 24 3.58172 24 8V9.23974C24 13.944 28.0394 17.6328 32.7243 17.2069L35 17L27 30Z" fill="#5C37F5"/>
</svg>
